<svg width="20" height="20" viewBox="0 0 20 20" fill="none" xmlns="http://www.w3.org/2000/svg">
<path opacity="0.5" d="M10 13.3333C11.3807 13.3333 12.5 12.214 12.5 10.8333C12.5 9.45262 11.3807 8.33333 10 8.33333C8.61929 8.33333 7.5 9.45262 7.5 10.8333C7.5 12.214 8.61929 13.3333 10 13.3333Z" stroke="#045B79" stroke-width="1.1"/>
<path d="M8.14829 17.5H11.8516C14.4525 17.5 15.7533 17.5 16.6875 16.8875C17.0905 16.6233 17.4377 16.2824 17.7091 15.8842C18.3333 14.9675 18.3333 13.69 18.3333 11.1367C18.3333 8.58249 18.3333 7.30583 17.7091 6.38916C17.4377 5.99092 17.0905 5.64999 16.6875 5.38583C16.0875 4.99166 15.3358 4.85083 14.185 4.80083C13.6358 4.80083 13.1633 4.39249 13.0558 3.86333C12.9736 3.47572 12.7602 3.12836 12.4515 2.87995C12.1428 2.63155 11.7578 2.49733 11.3616 2.49999H8.63829C7.81496 2.49999 7.10579 3.07083 6.94413 3.86333C6.83663 4.39249 6.36413 4.80083 5.81496 4.80083C4.66496 4.85083 3.91329 4.99249 3.31246 5.38583C2.90964 5.65005 2.56277 5.99097 2.29163 6.38916C1.66663 7.30583 1.66663 8.58249 1.66663 11.1367C1.66663 13.69 1.66663 14.9667 2.29079 15.8842C2.56079 16.2808 2.90746 16.6217 3.31246 16.8875C4.24663 17.5 5.54746 17.5 8.14829 17.5Z" stroke="#045B79" stroke-width="1.1"/>
<path opacity="0.5" d="M15.8333 8.33333H15" stroke="#045B79" stroke-width="1.1" stroke-linecap="round"/>
</svg>
