<svg width="15" height="15" viewBox="0 0 15 15" fill="none" xmlns="http://www.w3.org/2000/svg">
<g opacity="0.2">
<path fill-rule="evenodd" clip-rule="evenodd" d="M3.375 2.25C3.07663 2.25 2.79048 2.36853 2.5795 2.5795C2.36853 2.79048 2.25 3.07663 2.25 3.375V13.875C2.25 14.1734 2.36853 14.4595 2.5795 14.6705C2.79048 14.8815 3.07663 15 3.375 15H13.875C14.1734 15 14.4595 14.8815 14.6705 14.6705C14.8815 14.4595 15 14.1734 15 13.875V3.375C15 3.07663 14.8815 2.79048 14.6705 2.5795C14.4595 2.36853 14.1734 2.25 13.875 2.25H3.375ZM6.75 6.75C7.14782 6.75 7.52936 6.59196 7.81066 6.31066C8.09196 6.02936 8.25 5.64782 8.25 5.25C8.25 4.85218 8.09196 4.47064 7.81066 4.18934C7.52936 3.90804 7.14782 3.75 6.75 3.75C6.35218 3.75 5.97064 3.90804 5.68934 4.18934C5.40804 4.47064 5.25 4.85218 5.25 5.25C5.25 5.64782 5.40804 6.02936 5.68934 6.31066C5.97064 6.59196 6.35218 6.75 6.75 6.75ZM9.7545 7.59225C9.68409 7.51094 9.59702 7.44571 9.49919 7.40101C9.40136 7.35631 9.29506 7.33318 9.1875 7.33318C9.07994 7.33318 8.97364 7.35631 8.87581 7.40101C8.77798 7.44571 8.69091 7.51094 8.6205 7.59225L7.44825 8.946L6.97725 8.3115C6.90748 8.21749 6.81667 8.14112 6.71209 8.08851C6.60751 8.03589 6.49207 8.00848 6.375 8.00848C6.25793 8.00848 6.14249 8.03589 6.03791 8.08851C5.93333 8.14112 5.84252 8.21749 5.77275 8.3115L4.34025 10.2405C4.25739 10.3521 4.20719 10.4846 4.19526 10.6231C4.18332 10.7617 4.21013 10.9008 4.27268 11.0249C4.33523 11.1491 4.43106 11.2534 4.54947 11.3263C4.66789 11.3991 4.80422 11.4376 4.94325 11.4375H11.4427C11.5866 11.4376 11.7274 11.3963 11.8484 11.3185C11.9694 11.2408 12.0655 11.1299 12.1252 10.9991C12.185 10.8683 12.2059 10.7231 12.1854 10.5807C12.1649 10.4384 12.1039 10.3049 12.0098 10.1962L9.7545 7.59225Z" fill="white"/>
<path fill-rule="evenodd" clip-rule="evenodd" d="M3.75 3.75V8.52L4.56825 7.4175C4.58325 7.3965 4.59825 7.377 4.61475 7.3575C4.05972 6.79661 3.74889 6.03908 3.75 5.25C3.75 4.70325 3.89625 4.191 4.15125 3.75H3.75ZM3.375 2.25C3.07663 2.25 2.79048 2.36853 2.5795 2.5795C2.36853 2.79048 2.25 3.07663 2.25 3.375V13.875C2.25 14.1734 2.36853 14.4595 2.5795 14.6705C2.79048 14.8815 3.07663 15 3.375 15H13.875C14.1734 15 14.4595 14.8815 14.6705 14.6705C14.8815 14.4595 15 14.1734 15 13.875V3.375C15 3.07663 14.8815 2.79048 14.6705 2.5795C14.4595 2.36853 14.1734 2.25 13.875 2.25H3.375ZM9.34875 3.75H13.5V9.76575C13.4082 9.56593 13.2882 9.3803 13.1437 9.2145L10.8885 6.6105C10.5746 6.24589 10.1513 5.99232 9.68175 5.8875C9.83971 5.15836 9.72103 4.39653 9.34875 3.75ZM8.799 7.4415C8.95036 7.34973 9.1293 7.31445 9.30416 7.3419C9.47902 7.36935 9.63854 7.45777 9.7545 7.5915L12.0098 10.1962C12.1039 10.3049 12.1649 10.4384 12.1854 10.5807C12.2059 10.7231 12.185 10.8683 12.1252 10.9991C12.0655 11.1299 11.9694 11.2408 11.8484 11.3185C11.7274 11.3963 11.5866 11.4376 11.4427 11.4375H4.94325C4.80428 11.4375 4.66805 11.3989 4.54974 11.326C4.43144 11.2531 4.33572 11.1487 4.27326 11.0246C4.2108 10.9004 4.18406 10.7614 4.19602 10.6229C4.20798 10.4845 4.25818 10.3521 4.341 10.2405L5.77275 8.3115C5.84252 8.21749 5.93333 8.14112 6.03791 8.08851C6.14249 8.03589 6.25793 8.00848 6.375 8.00848C6.49207 8.00848 6.60751 8.03589 6.71209 8.08851C6.81667 8.14112 6.90748 8.21749 6.97725 8.3115L7.44825 8.946L8.6205 7.59225C8.67176 7.53298 8.73199 7.48212 8.799 7.4415ZM7.608 6.48C7.80646 6.34214 7.96855 6.15822 8.08036 5.944C8.19217 5.72978 8.25038 5.49165 8.25 5.25C8.25009 4.9143 8.13756 4.58828 7.93043 4.3241C7.72329 4.05992 7.43353 3.87286 7.10751 3.79285C6.78148 3.71284 6.43804 3.7445 6.13214 3.88278C5.82624 4.02106 5.57557 4.25795 5.42024 4.55555C5.26491 4.85315 5.21389 5.19425 5.27536 5.52428C5.33683 5.8543 5.50723 6.15417 5.75928 6.37589C6.01134 6.59761 6.33049 6.72837 6.66566 6.74725C7.00083 6.76612 7.33264 6.67202 7.608 6.48ZM13.5 11.5988C13.1625 12.3593 12.417 12.9375 11.4427 12.9375H4.94325C4.52157 12.9402 4.10779 12.8232 3.75 12.6V13.5H13.5V11.5988Z" fill="white"/>
</g>
<path fill-rule="evenodd" clip-rule="evenodd" d="M6 6C6.19891 6 6.38968 5.92098 6.53033 5.78033C6.67098 5.63968 6.75 5.44891 6.75 5.25C6.75 5.05109 6.67098 4.86032 6.53033 4.71967C6.38968 4.57902 6.19891 4.5 6 4.5C5.80109 4.5 5.61032 4.57902 5.46967 4.71967C5.32902 4.86032 5.25 5.05109 5.25 5.25C5.25 5.44891 5.32902 5.63968 5.46967 5.78033C5.61032 5.92098 5.80109 6 6 6ZM6 6.75C6.39782 6.75 6.77936 6.59196 7.06066 6.31066C7.34196 6.02936 7.5 5.64782 7.5 5.25C7.5 4.85218 7.34196 4.47064 7.06066 4.18934C6.77936 3.90804 6.39782 3.75 6 3.75C5.60218 3.75 5.22064 3.90804 4.93934 4.18934C4.65804 4.47064 4.5 4.85218 4.5 5.25C4.5 5.64782 4.65804 6.02936 4.93934 6.31066C5.22064 6.59196 5.60218 6.75 6 6.75Z" fill="white"/>
<path d="M5.62512 8.0085L4.19262 9.9375H5.62512L7.05762 10.6875H4.19262C4.05372 10.6874 3.91758 10.6487 3.79939 10.5757C3.68119 10.5027 3.58558 10.3984 3.52321 10.2743C3.46084 10.1501 3.43417 10.0111 3.44616 9.87276C3.45815 9.73437 3.50834 9.60204 3.59112 9.4905L5.02287 7.5615C5.09264 7.46749 5.18345 7.39112 5.28803 7.33851C5.39261 7.28589 5.50805 7.25848 5.62512 7.25848C5.74219 7.25848 5.85763 7.28589 5.96221 7.33851C6.06679 7.39112 6.1576 7.46749 6.22737 7.5615L6.94362 8.526L6.34137 8.973L5.62512 8.0085Z" fill="white"/>
<path fill-rule="evenodd" clip-rule="evenodd" d="M10.6927 9.93751L8.43741 7.33351L6.18216 9.93751H10.6927ZM9.00441 6.84226C8.93401 6.76095 8.84694 6.69573 8.74911 6.65103C8.65127 6.60633 8.54497 6.58319 8.43741 6.58319C8.32985 6.58319 8.22355 6.60633 8.12572 6.65103C8.02789 6.69573 7.94082 6.76095 7.87041 6.84226L5.61516 9.44626C5.52097 9.55493 5.46 9.68839 5.43952 9.83074C5.41905 9.97309 5.43994 10.1183 5.49969 10.2491C5.55944 10.3799 5.65555 10.4908 5.77655 10.5685C5.89755 10.6463 6.03835 10.6876 6.18216 10.6875H10.6927C10.8365 10.6876 10.9773 10.6463 11.0983 10.5685C11.2193 10.4908 11.3154 10.3799 11.3751 10.2491C11.4349 10.1183 11.4558 9.97309 11.4353 9.83074C11.4148 9.68839 11.3539 9.55493 11.2597 9.44626L9.00441 6.84226Z" fill="white"/>
<path fill-rule="evenodd" clip-rule="evenodd" d="M12.75 1.875H2.25C2.15054 1.875 2.05516 1.91451 1.98484 1.98484C1.91451 2.05516 1.875 2.15054 1.875 2.25V12.75C1.875 12.8495 1.91451 12.9448 1.98484 13.0152C2.05516 13.0855 2.15054 13.125 2.25 13.125H12.75C12.8495 13.125 12.9448 13.0855 13.0152 13.0152C13.0855 12.9448 13.125 12.8495 13.125 12.75V2.25C13.125 2.15054 13.0855 2.05516 13.0152 1.98484C12.9448 1.91451 12.8495 1.875 12.75 1.875ZM2.25 1.125C1.95163 1.125 1.66548 1.24353 1.4545 1.4545C1.24353 1.66548 1.125 1.95163 1.125 2.25V12.75C1.125 13.0484 1.24353 13.3345 1.4545 13.5455C1.66548 13.7565 1.95163 13.875 2.25 13.875H12.75C13.0484 13.875 13.3345 13.7565 13.5455 13.5455C13.7565 13.3345 13.875 13.0484 13.875 12.75V2.25C13.875 1.95163 13.7565 1.66548 13.5455 1.4545C13.3345 1.24353 13.0484 1.125 12.75 1.125H2.25Z" fill="white"/>
</svg>
