<svg width="20" height="20" viewBox="0 0 20 20" fill="none" xmlns="http://www.w3.org/2000/svg">
<path fill-rule="evenodd" clip-rule="evenodd" d="M3.2325 3.2325C2.5 3.96417 2.5 5.14333 2.5 7.5V12.5C2.5 14.8567 2.5 16.0358 3.2325 16.7675C3.7675 17.3025 4.54083 17.4467 5.83667 17.4858C5.83333 17.2392 5.83333 16.9667 5.83333 16.6667V15.8333C5.83333 14.2617 5.83333 13.4767 6.32167 12.9883C6.81 12.5 7.595 12.5 9.16667 12.5H10C11.5717 12.5 12.3567 12.5 12.845 12.9883C13.3333 13.4767 13.3333 14.2617 13.3333 15.8333V16.6667C13.3333 16.9725 13.3333 17.2483 13.33 17.4983C15.145 17.4883 16.1267 17.4083 16.7675 16.7675C17.5 16.0358 17.5 14.8567 17.5 12.5V6.52333C17.5 6.18333 17.5 6.0125 17.4367 5.86C17.3733 5.70667 17.2533 5.58583 17.0117 5.345L14.655 2.98833C14.4133 2.74667 14.2933 2.62667 14.1408 2.56333C13.9867 2.5 13.8167 2.5 13.4758 2.5H7.5C5.14333 2.5 3.96417 2.5 3.2325 3.2325Z" fill="white" fill-opacity="0.25"/>
<path d="M13.3333 17.5V15.8333C13.3333 14.2617 13.3333 13.4767 12.8449 12.9883C12.3566 12.5 11.5716 12.5 9.99992 12.5H9.16659C7.59492 12.5 6.80992 12.5 6.32159 12.9883C5.83325 13.4767 5.83325 14.2617 5.83325 15.8333V17.5" stroke="white" stroke-width="1.2"/>
<path d="M5.83325 6.66669H9.99992" stroke="white" stroke-width="1.2" stroke-linecap="round"/>
<path d="M2.5 7.5C2.5 5.14333 2.5 3.96417 3.2325 3.2325C3.96417 2.5 5.14333 2.5 7.5 2.5H13.4767C13.8167 2.5 13.9875 2.5 14.14 2.56333C14.2933 2.62667 14.4142 2.74667 14.655 2.98833L17.0117 5.345C17.2533 5.58667 17.3733 5.70667 17.4367 5.86C17.5 6.0125 17.5 6.18333 17.5 6.52333V12.5C17.5 14.8567 17.5 16.0358 16.7675 16.7675C16.0358 17.5 14.8567 17.5 12.5 17.5H7.5C5.14333 17.5 3.96417 17.5 3.2325 16.7675C2.5 16.0358 2.5 14.8567 2.5 12.5V7.5Z" stroke="white" stroke-width="1.2"/>
</svg>
