<svg width="20" height="20" viewBox="0 0 20 20" fill="none" xmlns="http://www.w3.org/2000/svg">
<path d="M7.49992 9.58333C7.49992 10.1359 7.28043 10.6658 6.88972 11.0565C6.49902 11.4472 5.96912 11.6667 5.41659 11.6667C4.86405 11.6667 4.33415 11.4472 3.94345 11.0565C3.55275 10.6658 3.33325 10.1359 3.33325 9.58333C3.33325 9.0308 3.55275 8.50089 3.94345 8.11019C4.33415 7.71949 4.86405 7.5 5.41659 7.5C5.96912 7.5 6.49902 7.71949 6.88972 8.11019C7.28043 8.50089 7.49992 9.0308 7.49992 9.58333Z" stroke="black" stroke-width="1.5"/>
<path opacity="0.5" d="M11.9333 14.0017L7.5 11.075M12.0167 5.70001L7.58333 8.62668" stroke="black" stroke-width="1.5" stroke-linecap="round"/>
<path d="M15.8332 15.4167C15.8332 15.9692 15.6137 16.4991 15.223 16.8898C14.8323 17.2805 14.3024 17.5 13.7498 17.5C13.1973 17.5 12.6674 17.2805 12.2767 16.8898C11.886 16.4991 11.6665 15.9692 11.6665 15.4167C11.6665 14.8641 11.886 14.3342 12.2767 13.9435C12.6674 13.5528 13.1973 13.3333 13.7498 13.3333C14.3024 13.3333 14.8323 13.5528 15.223 13.9435C15.6137 14.3342 15.8332 14.8641 15.8332 15.4167ZM15.8332 4.58333C15.8332 5.13587 15.6137 5.66577 15.223 6.05647C14.8323 6.44717 14.3024 6.66667 13.7498 6.66667C13.1973 6.66667 12.6674 6.44717 12.2767 6.05647C11.886 5.66577 11.6665 5.13587 11.6665 4.58333C11.6665 4.0308 11.886 3.50089 12.2767 3.11019C12.6674 2.71949 13.1973 2.5 13.7498 2.5C14.3024 2.5 14.8323 2.71949 15.223 3.11019C15.6137 3.50089 15.8332 4.0308 15.8332 4.58333Z" stroke="black" stroke-width="1.5"/>
</svg>
