<svg width="14" height="14" viewBox="0 0 14 14" fill="none" xmlns="http://www.w3.org/2000/svg">
<path fill-rule="evenodd" clip-rule="evenodd" d="M1.26621 0.492798V0.802113H0.647577V0.492798H1.26621ZM0.49292 1.3238H0.802235V1.94358H0.49292V1.3238ZM0.49292 2.87153H0.802235V3.49016H0.49292V2.87153ZM0.49292 4.41926H0.802235V5.03789H0.49292V4.42388V4.41926ZM0.49292 5.96699H0.802235V6.45174H0.49292V5.96699ZM0.802235 7.54704V8.13336H0.49292V7.54704H0.802235ZM0.49292 9.06246H0.802235V9.68109H0.49292V9.06246ZM0.49292 10.6102H0.802235V11.2334H0.49292V10.6102ZM0.49292 12.1579H0.802235V12.7766H0.49292V12.1568V12.1579ZM1.00075 13.5071V13.1955H1.61938V13.5048L1.00075 13.5071ZM2.54848 13.5071V13.1955H3.16711V13.5048L2.54848 13.5071ZM4.09506 13.5071V13.1955H4.71254V13.5048L4.09506 13.5071ZM5.6428 13.5071V13.1955H6.26258V13.5048L5.6428 13.5071ZM8.45434 13.5071V13.1955H9.07297V13.5048L8.45434 13.5071ZM10.0021 13.5071V13.1955H10.6207V13.5048L10.0021 13.5071ZM11.5498 13.5071V13.1955H12.1684V13.5048L11.5498 13.5071ZM13.5119 13.3236H13.2026V12.7038H13.5119V13.3236ZM13.5119 11.7759H13.2026V11.1561H13.5119V11.7759ZM13.5119 10.2282H13.2026V9.60953H13.5119V10.2282ZM13.5119 8.68043H13.2026V8.0618H13.5119V8.68043ZM13.5119 5.58497H13.2026V4.96634H13.5119V5.58497ZM13.5119 4.03723H13.2026V3.4186H13.5119V4.03723ZM13.5119 2.4895H13.2026V1.87087H13.5119V2.4895ZM13.5119 0.942921H13.2026V0.802113H13.0329V0.492798H13.5119V0.942921ZM12.1038 0.492798V0.802113H11.4852V0.492798H12.1038ZM10.5572 0.492798V0.802113H9.93744V0.492798H10.5572ZM9.00949 0.492798V0.802113H8.3897V0.492798H9.00949ZM5.91403 0.492798V0.802113H5.28962V0.492798H5.91403ZM4.36629 0.492798V0.802113H3.74304V0.492798H4.36629ZM2.81856 0.492798V0.802113H2.19993V0.492798H2.81856Z" fill="white"/>
<path d="M12.2976 1.70239H1.70239V12.2976H12.2976V1.70239Z" fill="#DEF1F0"/>
<path d="M12.2976 1.70239H7V12.2976H12.2976V1.70239Z" fill="#C6E8ED"/>
<path fill-rule="evenodd" clip-rule="evenodd" d="M12.7501 6.29712H14.0001V7.70173H12.5955V6.29712H12.7501ZM13.6908 6.60759H12.9071V7.39242H13.6931L13.6908 6.60759Z" fill="white"/>
<path fill-rule="evenodd" clip-rule="evenodd" d="M0.154657 6.29712H1.40461V7.70173H0V6.29712H0.154657ZM1.0953 6.60759H0.309315V7.39242H1.0953V6.60759Z" fill="white"/>
<path fill-rule="evenodd" clip-rule="evenodd" d="M6.44385 1.24996V0H7.84847V1.40462H6.44385V1.24996ZM6.75316 0.309317V1.0953H7.53915V0.309317H6.75316Z" fill="white"/>
<path fill-rule="evenodd" clip-rule="evenodd" d="M6.5105 13.8454V12.5954H7.91512V14.0035H6.5105V13.8488V13.8454ZM6.81982 12.9047V13.6907H7.6058V12.9047H6.81982Z" fill="white"/>
<path fill-rule="evenodd" clip-rule="evenodd" d="M1.40461 12.5157V13.9204H0V12.5157H1.40461Z" fill="white"/>
<path fill-rule="evenodd" clip-rule="evenodd" d="M14.0001 12.5157V13.9204H12.5955V12.5157H14.0001Z" fill="white"/>
<path fill-rule="evenodd" clip-rule="evenodd" d="M1.40461 0.0380859V1.4427H0V0.0380859H1.40461Z" fill="white"/>
<path fill-rule="evenodd" clip-rule="evenodd" d="M14.0001 0.0380859V1.4427H12.5955V0.0380859H14.0001Z" fill="white"/>
<path fill-rule="evenodd" clip-rule="evenodd" d="M4.45728 12.2849L10.2269 2.27368L12.2975 5.86428V12.2849H4.45728Z" fill="white"/>
<path fill-rule="evenodd" clip-rule="evenodd" d="M10.2271 2.27368L12.2976 5.86428V12.2849H10.2271V2.27368Z" fill="#CCEBF2"/>
<path fill-rule="evenodd" clip-rule="evenodd" d="M4.45728 12.2849L7.88629 6.33638L8.96659 5.07257L9.3567 5.93935L9.65794 5.34495L10.2269 6.48065L10.7971 5.34495L11.0983 5.93935L11.4884 5.07257L12.2975 6.01783V12.2849H4.45728Z" fill="#504743"/>
<path fill-rule="evenodd" clip-rule="evenodd" d="M10.2271 6.48065L10.7972 5.34495L11.0984 5.93935L11.4886 5.07257L12.2976 6.01783V12.2849H10.2271V6.48065Z" fill="#332E2A"/>
<g style="mix-blend-mode:multiply" opacity="0.5">
<path fill-rule="evenodd" clip-rule="evenodd" d="M10.7499 12.1903L6.54646 7.13849L5.11646 9.14789L10.7499 12.1903Z" fill="#010101"/>
</g>
<path fill-rule="evenodd" clip-rule="evenodd" d="M1.70117 10.7383L5.1602 4.73553L9.42368 12.1314H1.70117V10.7383Z" fill="white"/>
<path fill-rule="evenodd" clip-rule="evenodd" d="M5.16016 4.73553L9.42364 12.1314H5.16016V4.73553Z" fill="#CCEBF2"/>
<path fill-rule="evenodd" clip-rule="evenodd" d="M1.70117 10.7383L3.43126 7.73634L4.22879 6.80377L4.51733 7.44433L4.74008 7.0046L5.1602 7.84367L5.58147 7.0046L5.80422 7.44433L6.09276 6.80377L6.89029 7.73749L9.42368 12.1314H1.70117V10.7383Z" fill="#504743"/>
<path fill-rule="evenodd" clip-rule="evenodd" d="M5.16016 7.84367L5.58143 7.0046L5.80418 7.44433L6.09272 6.80377L6.89025 7.73749L9.42364 12.1314H5.16016V7.84367Z" fill="#332E2A"/>
<path fill-rule="evenodd" clip-rule="evenodd" d="M5.31832 8.34808C8.24528 8.3677 9.89573 11.8221 12.2975 12.2434V12.2826H1.70117V9.80695C2.8184 9.01404 3.99449 8.34808 5.31832 8.34808Z" fill="#ADD136"/>
<path fill-rule="evenodd" clip-rule="evenodd" d="M5.31857 8.34808C8.24553 8.3677 9.89598 11.8221 12.2978 12.2434V12.2826H5.01733V8.35847C5.11659 8.35155 5.217 8.34808 5.31857 8.34808Z" fill="#82A43E"/>
<path d="M3.45083 3.78222C3.70198 3.78222 3.90558 3.57863 3.90558 3.32748C3.90558 3.07634 3.70198 2.87274 3.45083 2.87274C3.19969 2.87274 2.99609 3.07634 2.99609 3.32748C2.99609 3.57863 3.19969 3.78222 3.45083 3.78222Z" fill="white"/>
</svg>
