<svg width="30" height="30" viewBox="0 0 30 30" fill="none" xmlns="http://www.w3.org/2000/svg">
<circle cx="15" cy="15" r="15" fill="#A80202"/>
<g clip-path="url(#clip0_24_295)">
<path fill-rule="evenodd" clip-rule="evenodd" d="M13.0312 10.625V9.3125H16.9688V10.625H13.0312ZM11.7188 10.625V8.875C11.7188 8.64294 11.8109 8.42038 11.975 8.25628C12.1391 8.09219 12.3617 8 12.5938 8H17.4062C17.6383 8 17.8609 8.09219 18.025 8.25628C18.1891 8.42038 18.2812 8.64294 18.2812 8.875V10.625H20.4688C20.6428 10.625 20.8097 10.6941 20.9328 10.8172C21.0559 10.9403 21.125 11.1072 21.125 11.2812C21.125 11.4553 21.0559 11.6222 20.9328 11.7453C20.8097 11.8684 20.6428 11.9375 20.4688 11.9375H20.1494L19.4993 20.3839C19.4655 20.8235 19.2671 21.2342 18.9436 21.5339C18.6201 21.8335 18.1954 22 17.7545 22H12.2455C11.8046 22 11.3799 21.8335 11.0564 21.5339C10.7329 21.2342 10.5345 20.8235 10.5008 20.3839L9.85063 11.9375H9.53125C9.3572 11.9375 9.19028 11.8684 9.06721 11.7453C8.94414 11.6222 8.875 11.4553 8.875 11.2812C8.875 11.1072 8.94414 10.9403 9.06721 10.8172C9.19028 10.6941 9.3572 10.625 9.53125 10.625H11.7188ZM11.1675 11.9375H18.8325L18.1903 20.2832C18.1819 20.3931 18.1323 20.4958 18.0516 20.5707C17.9708 20.6457 17.8647 20.6874 17.7545 20.6875H12.2455C12.1353 20.6874 12.0292 20.6457 11.9484 20.5707C11.8677 20.4958 11.8181 20.3931 11.8098 20.2832L11.1675 11.9375Z" fill="white"/>
</g>
<defs>
<clipPath id="clip0_24_295">
<rect width="14" height="14" fill="white" transform="translate(8 8)"/>
</clipPath>
</defs>
</svg>
