<svg width="30" height="30" viewBox="0 0 30 30" fill="none" xmlns="http://www.w3.org/2000/svg">
<circle cx="15" cy="15" r="15" transform="rotate(90 15 15)" fill="#CCEBF2"/>
<g clip-path="url(#clip0_24_377)">
<path d="M9.46062 15.0667C9.46062 15.244 9.52362 15.4214 9.65862 15.5614L15.1216 21.2267C15.3826 21.4974 15.8146 21.4974 16.0756 21.2267L21.5386 15.5614C21.7996 15.2907 21.7996 14.8427 21.5386 14.572C21.2776 14.3014 20.8456 14.3014 20.5846 14.572L15.5986 19.7427L10.6126 14.572C10.3516 14.3014 9.91962 14.3014 9.65862 14.572C9.52362 14.7027 9.46062 14.8894 9.46062 15.0667Z" fill="black"/>
<path d="M14.9249 8.83334L14.9249 20.5729C14.9249 20.9556 15.2309 21.2729 15.5999 21.2729C15.9689 21.2729 16.2749 20.9556 16.2749 20.5729L16.2749 8.83334C16.2749 8.45067 15.9689 8.13334 15.5999 8.13334C15.2309 8.13334 14.9249 8.45067 14.9249 8.83334Z" fill="black"/>
</g>
<defs>
<clipPath id="clip0_24_377">
<rect width="16.8" height="14.4" fill="white" transform="matrix(4.37114e-08 -1 -1 -4.37114e-08 22.7998 24)"/>
</clipPath>
</defs>
</svg>
