<svg width="20" height="20" viewBox="0 0 20 20" fill="none" xmlns="http://www.w3.org/2000/svg">
<path d="M3.33333 15.3208V15.8333V6.66666V15.3208ZM3.84583 16.6667C3.4625 16.6667 3.1425 16.5383 2.88583 16.2817C2.62861 16.0244 2.5 15.7042 2.5 15.3208V7.17916C2.5 6.79583 2.62861 6.47583 2.88583 6.21916C3.1425 5.96194 3.4625 5.83333 3.84583 5.83333H7.5V4.67916C7.5 4.29583 7.62861 3.97583 7.88583 3.71916C8.1425 3.46194 8.4625 3.33333 8.84583 3.33333H11.1542C11.5375 3.33333 11.8578 3.46194 12.115 3.71916C12.3717 3.97583 12.5 4.29583 12.5 4.67916V5.83333H16.1542C16.5375 5.83333 16.8575 5.96194 17.1142 6.21916C17.3714 6.47583 17.5 6.79583 17.5 7.17916V10.6775C17.3678 10.5936 17.2347 10.5203 17.1008 10.4575C16.9675 10.3953 16.8228 10.3369 16.6667 10.2825V7.17833C16.6667 7.02888 16.6186 6.90611 16.5225 6.80999C16.4264 6.71388 16.3036 6.66611 16.1542 6.66666H3.84583C3.69639 6.66666 3.57361 6.71472 3.4775 6.81083C3.38139 6.90694 3.33333 7.02972 3.33333 7.17916V15.3208C3.33333 15.4703 3.38139 15.5931 3.4775 15.6892C3.57361 15.7853 3.69639 15.8333 3.84583 15.8333H10.0625C10.0936 15.9861 10.1269 16.1292 10.1625 16.2625C10.1975 16.3958 10.24 16.5306 10.29 16.6667H3.84583ZM8.33333 5.83333H11.6667V4.67916C11.6667 4.52972 11.6186 4.40694 11.5225 4.31083C11.4264 4.21472 11.3036 4.16666 11.1542 4.16666H8.84583C8.69639 4.16666 8.57361 4.21472 8.4775 4.31083C8.38139 4.40694 8.33333 4.52972 8.33333 4.67916V5.83333ZM15 18.3333C14.0717 18.3333 13.2839 18.01 12.6367 17.3633C11.9894 16.7167 11.6661 15.9289 11.6667 15C11.6667 14.0717 11.99 13.2839 12.6367 12.6367C13.2833 11.9894 14.0711 11.6661 15 11.6667C15.9283 11.6667 16.7161 11.99 17.3633 12.6367C18.0106 13.2833 18.3339 14.0711 18.3333 15C18.3333 15.9283 18.01 16.7161 17.3633 17.3633C16.7167 18.0106 15.9289 18.3339 15 18.3333ZM14.6792 15.9333L13.5675 14.8208C13.5053 14.7586 13.4319 14.7247 13.3475 14.7192C13.2631 14.7136 13.1847 14.7475 13.1125 14.8208C13.0397 14.8931 13.0033 14.9689 13.0033 15.0483C13.0033 15.1272 13.0394 15.203 13.1117 15.2758L14.5283 16.6925C14.6633 16.8269 14.8206 16.8942 15 16.8942C15.1794 16.8942 15.3364 16.8269 15.4708 16.6925L16.8875 15.2758C16.9497 15.2136 16.9836 15.1403 16.9892 15.0558C16.9947 14.9714 16.9608 14.8931 16.8875 14.8208C16.8153 14.748 16.7394 14.7117 16.66 14.7117C16.5811 14.7117 16.5053 14.7478 16.4325 14.82L15.3208 15.9325V13.1575C15.3208 13.0675 15.2897 12.9914 15.2275 12.9292C15.1658 12.8675 15.09 12.8367 15 12.8367C14.91 12.8367 14.8342 12.8675 14.7725 12.9292C14.7103 12.9914 14.6792 13.0672 14.6792 13.1567V15.9333Z" fill="#045B79"/>
</svg>
