<svg width="44" height="44" viewBox="0 0 44 44" fill="none" xmlns="http://www.w3.org/2000/svg">
<path d="M25.6666 38.9583H18.3333V41.7083H25.6666V38.9583ZM5.04163 25.6667V18.3333H2.29163V25.6667H5.04163ZM38.9583 24.8655V25.6667H41.7083V24.8655H38.9583ZM27.3001 8.4535L34.5583 14.9857L36.3971 12.9397L29.1408 6.4075L27.3001 8.4535ZM41.7083 24.8655C41.7083 21.769 41.7358 19.8073 40.9566 18.0547L38.4431 19.1748C38.9308 20.2712 38.9583 21.527 38.9583 24.8655H41.7083ZM34.5583 14.9857C37.0388 17.2187 37.9555 18.0803 38.4431 19.1748L40.9566 18.0547C40.1756 16.3002 38.6998 15.0113 36.3971 12.9397L34.5583 14.9857ZM18.3883 5.04167C21.2886 5.04167 22.3831 5.06367 23.3566 5.43767L24.343 2.871C22.781 2.26967 21.0796 2.29167 18.3883 2.29167V5.04167ZM29.1408 6.40933C27.1498 4.61817 25.905 3.46867 24.343 2.871L23.3585 5.43767C24.3338 5.81167 25.1551 6.523 27.3001 8.4535L29.1408 6.40933ZM18.3333 38.9583C14.8371 38.9583 12.3548 38.9547 10.4683 38.7017C8.6258 38.4542 7.56246 37.9885 6.78696 37.213L4.84363 39.1563C6.21496 40.5313 7.9548 41.1382 10.1035 41.4278C12.2118 41.712 14.916 41.7083 18.3333 41.7083V38.9583ZM2.29163 25.6667C2.29163 29.084 2.28796 31.7863 2.57213 33.8965C2.8618 36.0452 3.47046 37.785 4.8418 39.1582L6.78513 37.2148C6.01146 36.4375 5.5458 35.3742 5.2983 33.5298C5.0453 31.647 5.04163 29.1628 5.04163 25.6667H2.29163ZM25.6666 41.7083C29.084 41.7083 31.7863 41.712 33.8965 41.4278C36.0451 41.1382 37.785 40.5295 39.1581 39.1582L37.2148 37.2148C36.4375 37.9885 35.3741 38.4542 33.5298 38.7017C31.647 38.9547 29.1628 38.9583 25.6666 38.9583V41.7083ZM38.9583 25.6667C38.9583 29.1628 38.9546 31.647 38.7016 33.5317C38.4541 35.3742 37.9885 36.4375 37.213 37.213L39.1563 39.1563C40.5313 37.785 41.1381 36.0452 41.4278 33.8965C41.712 31.7882 41.7083 29.084 41.7083 25.6667H38.9583ZM5.04163 18.3333C5.04163 14.8372 5.0453 12.3548 5.2983 10.4683C5.5458 8.62583 6.01146 7.5625 6.78696 6.787L4.84363 4.84367C3.46863 6.215 2.8618 7.95483 2.57213 10.1035C2.28796 12.2118 2.29163 14.916 2.29163 18.3333H5.04163ZM18.3883 2.29167C14.9508 2.29167 12.2356 2.288 10.1181 2.57217C7.9603 2.86183 6.21496 3.4705 4.8418 4.84183L6.78513 6.78517C7.56246 6.0115 8.62763 5.54583 10.483 5.29833C12.3768 5.04533 14.8738 5.04167 18.3883 5.04167V2.29167Z" fill="#012B31"/>
<path opacity="0.5" d="M23.8333 4.58331V9.16665C23.8333 13.4878 23.8333 15.6493 25.1753 16.9913C26.5173 18.3333 28.6788 18.3333 32.9999 18.3333H40.3333" stroke="#012B31" stroke-width="1.5"/>
</svg>
